<svg width="24" height="24" viewBox="0 0 24 24" fill="none" xmlns="http://www.w3.org/2000/svg">
<path d="M16.4 2.55C16.4591 2.47121 16.5331 2.40482 16.6179 2.35464C16.7026 2.30446 16.7964 2.27147 16.8939 2.25754C16.9914 2.24361 17.0907 2.24902 17.1861 2.27346C17.2815 2.29791 17.3712 2.34091 17.45 2.4L21.45 5.4C21.5431 5.46986 21.6187 5.56045 21.6708 5.66459C21.7229 5.76873 21.75 5.88357 21.75 6C21.75 6.11643 21.7229 6.23127 21.6708 6.33541C21.6187 6.43955 21.5431 6.53014 21.45 6.6L17.45 9.6C17.3712 9.6591 17.2815 9.70209 17.1861 9.72654C17.0907 9.75098 16.9914 9.75639 16.8939 9.74246C16.7964 9.72853 16.7026 9.69554 16.6179 9.64536C16.5331 9.59518 16.4591 9.52879 16.4 9.45V6.75H7C6.13805 6.75 5.3114 7.09241 4.7019 7.7019C4.09241 8.3114 3.75 9.13805 3.75 10V12C3.75 12.1989 3.67098 12.3897 3.53033 12.5303C3.38968 12.671 3.19891 12.75 3 12.75C2.80109 12.75 2.61032 12.671 2.46967 12.5303C2.32902 12.3897 2.25 12.1989 2.25 12V10C2.25 8.74022 2.75044 7.53204 3.64124 6.64124C4.53204 5.75045 5.74022 5.25 7 5.25H16.4V2.55ZM21 11.25C21.1989 11.25 21.3897 11.329 21.5303 11.4697C21.671 11.6103 21.75 11.8011 21.75 12V14C21.75 15.2598 21.2496 16.468 20.3588 17.3588C19.468 18.2496 18.2598 18.75 17 18.75H7.6V21.45C7.48065 21.6091 7.30298 21.7143 7.10607 21.7425C6.90915 21.7706 6.70913 21.7194 6.55 21.6L2.55 18.6C2.45685 18.5301 2.38125 18.4396 2.32918 18.3354C2.27711 18.2313 2.25 18.1164 2.25 18C2.25 17.8836 2.27711 17.7687 2.32918 17.6646C2.38125 17.5604 2.45685 17.4699 2.55 17.4L6.55 14.4C6.62879 14.3409 6.71845 14.2979 6.81386 14.2735C6.90927 14.249 7.00856 14.2436 7.10607 14.2575C7.20357 14.2715 7.29737 14.3045 7.38212 14.3546C7.46687 14.4048 7.54091 14.4712 7.6 14.55V17.25H17C17.862 17.25 18.6886 16.9076 19.2981 16.2981C19.9076 15.6886 20.25 14.862 20.25 14V12C20.25 11.8011 20.329 11.6103 20.4697 11.4697C20.6103 11.329 20.8011 11.25 21 11.25Z" fill="#21231D"/>
</svg>
