<?xml version="1.0" encoding="utf-8" ?>
<svg xmlns="http://www.w3.org/2000/svg" xmlns:xlink="http://www.w3.org/1999/xlink" width="1024" height="1024">
	<path transform="scale(2 2)" d="M133.546 74.5464C145.174 68.1516 158.64 65.9034 171.676 64.7567C241.816 64.0376 292.482 127.28 275.352 194.936C274.223 199.395 272.445 203.55 271.002 207.899C280.144 217.602 289.956 226.713 299.433 236.087L380.745 317.211C393.544 329.759 386.818 326.092 402.398 331.054C460.847 349.671 451.988 428.146 397.942 436.507C366.187 441.42 340.418 419.985 335.639 389.098C331.787 384.537 327.244 380.373 323.038 376.134L300.875 353.778L228.975 281.594C224.307 276.941 219.696 272.225 214.816 267.792C208.349 269.399 202.034 271.404 195.466 272.628C166.673 277.996 136.95 271.71 113.138 254.677C73.6793 226.454 57.9264 172.06 78.4713 127.538C88.8737 138.137 99.6704 148.33 110.173 158.824L128.814 177.128C134.651 182.89 139.245 190.65 147.765 190.197C151.685 188.042 154.839 183.871 157.971 180.743L173.772 164.995C180.002 158.741 187.963 151.695 193.675 145.263C201.101 136.899 187.147 128.096 181.141 122.095L149.536 90.4307C144.241 85.1635 138.455 80.1655 133.546 74.5464Z"/>
</svg>
