<svg width="28" height="28" viewBox="0 0 28 28" fill="none" xmlns="http://www.w3.org/2000/svg">
<path d="M17.4997 15.1668C17.8091 15.1668 18.1058 15.0439 18.3246 14.8251C18.5434 14.6063 18.6663 14.3096 18.6663 14.0002C18.6663 13.6907 18.5434 13.394 18.3246 13.1752C18.1058 12.9564 17.8091 12.8335 17.4997 12.8335C17.1903 12.8335 16.8935 12.9564 16.6747 13.1752C16.4559 13.394 16.333 13.6907 16.333 14.0002C16.333 14.3096 16.4559 14.6063 16.6747 14.8251C16.8935 15.0439 17.1903 15.1668 17.4997 15.1668ZM17.4997 22.1668C17.8091 22.1668 18.1058 22.0439 18.3246 21.8251C18.5434 21.6063 18.6663 21.3096 18.6663 21.0002C18.6663 20.6907 18.5434 20.394 18.3246 20.1752C18.1058 19.9564 17.8091 19.8335 17.4997 19.8335C17.1903 19.8335 16.8935 19.9564 16.6747 20.1752C16.4559 20.394 16.333 20.6907 16.333 21.0002C16.333 21.3096 16.4559 21.6063 16.6747 21.8251C16.8935 22.0439 17.1903 22.1668 17.4997 22.1668ZM17.4997 8.16683C17.8091 8.16683 18.1058 8.04391 18.3246 7.82512C18.5434 7.60633 18.6663 7.30958 18.6663 7.00016C18.6663 6.69074 18.5434 6.394 18.3246 6.17521C18.1058 5.95641 17.8091 5.8335 17.4997 5.8335C17.1903 5.8335 16.8935 5.95641 16.6747 6.17521C16.4559 6.394 16.333 6.69074 16.333 7.00016C16.333 7.30958 16.4559 7.60633 16.6747 7.82512C16.8935 8.04391 17.1903 8.16683 17.4997 8.16683ZM10.4997 15.1668C10.8091 15.1668 11.1058 15.0439 11.3246 14.8251C11.5434 14.6063 11.6663 14.3096 11.6663 14.0002C11.6663 13.6907 11.5434 13.394 11.3246 13.1752C11.1058 12.9564 10.8091 12.8335 10.4997 12.8335C10.1903 12.8335 9.89351 12.9564 9.67472 13.1752C9.45592 13.394 9.33301 13.6907 9.33301 14.0002C9.33301 14.3096 9.45592 14.6063 9.67472 14.8251C9.89351 15.0439 10.1903 15.1668 10.4997 15.1668ZM10.4997 22.1668C10.8091 22.1668 11.1058 22.0439 11.3246 21.8251C11.5434 21.6063 11.6663 21.3096 11.6663 21.0002C11.6663 20.6907 11.5434 20.394 11.3246 20.1752C11.1058 19.9564 10.8091 19.8335 10.4997 19.8335C10.1903 19.8335 9.89351 19.9564 9.67472 20.1752C9.45592 20.394 9.33301 20.6907 9.33301 21.0002C9.33301 21.3096 9.45592 21.6063 9.67472 21.8251C9.89351 22.0439 10.1903 22.1668 10.4997 22.1668ZM10.4997 8.16683C10.8091 8.16683 11.1058 8.04391 11.3246 7.82512C11.5434 7.60633 11.6663 7.30958 11.6663 7.00016C11.6663 6.69074 11.5434 6.394 11.3246 6.17521C11.1058 5.95641 10.8091 5.8335 10.4997 5.8335C10.1903 5.8335 9.89351 5.95641 9.67472 6.17521C9.45592 6.394 9.33301 6.69074 9.33301 7.00016C9.33301 7.30958 9.45592 7.60633 9.67472 7.82512C9.89351 8.04391 10.1903 8.16683 10.4997 8.16683Z" stroke="#2E2E2E" stroke-width="2" stroke-miterlimit="10" stroke-linejoin="round"/>
</svg>
