<svg width="99" height="70" viewBox="0 0 99 70" fill="none" xmlns="http://www.w3.org/2000/svg">
<path d="M32.7729 23.904C32.5009 23.904 32.2449 23.872 32.0049 23.808C31.6849 23.712 31.4289 23.544 31.2369 23.304C31.0449 23.064 30.9489 22.816 30.9489 22.56C30.9489 22.288 30.9649 22.104 30.9969 22.008C31.0289 21.912 31.1009 21.864 31.2129 21.864C31.3089 21.864 31.4769 21.888 31.7169 21.936C31.8449 21.936 31.9729 22.04 32.1009 22.248C32.2289 22.472 32.3729 22.624 32.5329 22.704C32.7409 22.784 32.9169 22.824 33.0609 22.824C33.3489 22.824 33.6129 22.752 33.8529 22.608C34.1089 22.464 34.3249 22.312 34.5009 22.152C35.0769 21.656 35.5729 21.144 35.9889 20.616C36.4049 20.088 36.7889 19.488 37.1409 18.816C37.5089 18.16 37.8689 17.392 38.2209 16.512C38.3329 16.256 38.4369 15.96 38.5329 15.624C38.6449 15.272 38.7329 14.944 38.7969 14.64C38.8769 14.32 38.9089 14.088 38.8929 13.944C38.8129 14.008 38.7249 14.08 38.6289 14.16C38.5489 14.24 38.4609 14.32 38.3649 14.4C37.9969 14.736 37.5569 15.072 37.0449 15.408C36.5489 15.744 36.0209 16.024 35.4609 16.248C34.9009 16.472 34.3249 16.584 33.7329 16.584C33.2049 16.584 32.7089 16.48 32.2449 16.272C31.7009 16.016 31.3169 15.68 31.0929 15.264C30.8689 14.848 30.7569 14.408 30.7569 13.944C30.7569 13.72 30.7729 13.504 30.8049 13.296C30.8529 13.088 30.9089 12.88 30.9729 12.672C31.1009 12.224 31.3329 11.816 31.6689 11.448C32.0049 11.064 32.3809 10.744 32.7969 10.488C33.2129 10.232 33.6129 10.064 33.9969 9.984C34.0289 9.968 34.0689 9.96 34.1169 9.96C34.1649 9.96 34.2049 9.96 34.2369 9.96C34.4609 9.96 34.6449 10.024 34.7889 10.152C34.9329 10.264 35.0049 10.384 35.0049 10.512C35.0049 10.672 34.8929 10.8 34.6689 10.896C34.2849 11.04 33.9409 11.184 33.6369 11.328C33.3489 11.472 33.0929 11.664 32.8689 11.904C32.6609 12.144 32.4689 12.496 32.2929 12.96C32.2449 13.088 32.2049 13.24 32.1729 13.416C32.1409 13.592 32.1249 13.776 32.1249 13.968C32.1249 14.272 32.1729 14.568 32.2689 14.856C32.3809 15.144 32.5649 15.328 32.8209 15.408C33.1409 15.504 33.4529 15.552 33.7569 15.552C34.4609 15.552 35.1489 15.368 35.8209 15C36.5089 14.616 37.1089 14.208 37.6209 13.776C38.3249 13.216 38.7729 12.752 38.9649 12.384C39.1729 12 39.3169 11.672 39.3969 11.4C39.4449 11.224 39.5329 11.104 39.6609 11.04C39.7889 10.96 39.9249 10.92 40.0689 10.92C40.2449 10.92 40.4049 10.984 40.5489 11.112C40.7089 11.224 40.7569 11.376 40.6929 11.568C40.4529 12.448 40.1969 13.416 39.9249 14.472C39.6689 15.528 39.3329 16.592 38.9169 17.664C38.5169 18.736 37.9889 19.752 37.3329 20.712C36.6769 21.688 35.8369 22.536 34.8129 23.256C34.5569 23.432 34.2529 23.584 33.9009 23.712C33.5489 23.84 33.1729 23.904 32.7729 23.904ZM43.2306 17.544C43.1346 17.544 43.0386 17.544 42.9426 17.544C42.8466 17.528 42.7506 17.512 42.6546 17.496C41.9986 17.416 41.4866 17.104 41.1186 16.56C40.7666 16 40.5906 15.376 40.5906 14.688C40.5906 14.24 40.6786 13.768 40.8546 13.272C41.0466 12.76 41.3426 12.296 41.7426 11.88C42.1426 11.448 42.6066 11.104 43.1346 10.848C43.6626 10.592 44.1986 10.464 44.7426 10.464C45.0146 10.464 45.2706 10.496 45.5106 10.56C45.7666 10.624 45.8946 10.752 45.8946 10.944C45.8946 11.072 45.8226 11.2 45.6786 11.328C45.5506 11.44 45.3746 11.472 45.1506 11.424C45.0866 11.408 44.9826 11.4 44.8386 11.4C44.4546 11.4 44.0626 11.504 43.6626 11.712C43.2626 11.92 42.9026 12.2 42.5826 12.552C42.2626 12.888 42.0306 13.264 41.8866 13.68C41.7746 14 41.7186 14.32 41.7186 14.64C41.7186 15.136 41.8306 15.56 42.0546 15.912C42.2946 16.264 42.5666 16.44 42.8706 16.44C42.9506 16.456 43.0226 16.464 43.0866 16.464C43.1666 16.464 43.2386 16.464 43.3026 16.464C44.0066 16.464 44.6786 16.272 45.3186 15.888C45.9746 15.488 46.4786 15.056 46.8306 14.592C47.0066 14.32 47.1266 14.08 47.1906 13.872C47.2546 13.648 47.2866 13.464 47.2866 13.32C47.2866 13 47.1906 12.784 46.9986 12.672C46.8066 12.56 46.6306 12.512 46.4706 12.528C46.2146 12.56 45.9666 12.6 45.7266 12.648C45.4866 12.68 45.2786 12.736 45.1026 12.816C45.0066 12.848 44.9346 12.864 44.8866 12.864C44.7266 12.864 44.5906 12.8 44.4786 12.672C44.3826 12.544 44.3346 12.408 44.3346 12.264C44.3346 12.008 44.4546 11.84 44.6946 11.76C44.9186 11.68 45.1826 11.608 45.4866 11.544C45.7906 11.48 46.1026 11.432 46.4226 11.4C46.4866 11.384 46.5426 11.376 46.5906 11.376C46.6386 11.376 46.6946 11.376 46.7586 11.376C47.3346 11.376 47.7826 11.552 48.1026 11.904C48.4226 12.24 48.5826 12.656 48.5826 13.152C48.5826 13.456 48.5106 13.784 48.3666 14.136C48.2226 14.488 47.9906 14.824 47.6706 15.144C47.3826 15.512 47.0146 15.88 46.5666 16.248C46.1186 16.616 45.6146 16.928 45.0546 17.184C44.4946 17.424 43.8866 17.544 43.2306 17.544ZM52.4678 17.352C52.1958 17.352 51.9158 17.312 51.6278 17.232C51.3398 17.152 51.0518 17.032 50.7638 16.872C50.2358 16.568 49.8678 16.176 49.6598 15.696C49.4518 15.216 49.3478 14.704 49.3478 14.16C49.3478 13.904 49.3638 13.656 49.3958 13.416C49.4278 13.16 49.4758 12.904 49.5398 12.648C49.6678 12.12 49.8918 11.64 50.2118 11.208C50.5318 10.76 50.8918 10.384 51.2918 10.08C51.6918 9.776 52.0758 9.584 52.4438 9.504C52.4918 9.488 52.5558 9.48 52.6358 9.48C52.8598 9.48 53.0438 9.544 53.1878 9.672C53.3318 9.8 53.4038 9.944 53.4038 10.104C53.4038 10.296 53.2918 10.448 53.0678 10.56V10.584C52.6998 10.744 52.3718 10.912 52.0838 11.088C51.8118 11.248 51.5718 11.472 51.3638 11.76C51.1558 12.048 50.9638 12.464 50.7878 13.008C50.6918 13.296 50.6438 13.68 50.6438 14.16C50.6438 14.528 50.6918 14.88 50.7878 15.216C50.8998 15.536 51.0838 15.752 51.3398 15.864C51.6118 15.976 51.8998 16.032 52.2038 16.032C52.8598 16.032 53.5078 15.808 54.1478 15.36C54.7878 14.896 55.3558 14.416 55.8518 13.92C56.2998 13.472 56.7158 12.968 57.0998 12.408C57.4998 11.832 57.8358 11.304 58.1078 10.824C58.3798 10.328 58.5398 9.968 58.5878 9.744C58.6518 9.472 58.8278 9.336 59.1158 9.336C59.2918 9.336 59.4518 9.408 59.5958 9.552C59.7398 9.68 59.7798 9.856 59.7158 10.08C59.6198 10.416 59.4278 10.856 59.1398 11.4C58.8678 11.944 58.5318 12.512 58.1318 13.104C57.7478 13.68 57.3398 14.208 56.9078 14.688C56.5558 15.088 56.1478 15.496 55.6838 15.912C55.2198 16.312 54.7158 16.656 54.1718 16.944C53.6278 17.216 53.0598 17.352 52.4678 17.352ZM60.0007 17.616C59.8567 17.616 59.7207 17.56 59.5927 17.448C59.4807 17.32 59.4247 17.112 59.4247 16.824C59.4247 16.76 59.4247 16.696 59.4247 16.632C59.4407 16.552 59.4567 16.472 59.4727 16.392C59.6167 15.688 59.8007 14.944 60.0247 14.16C60.2647 13.376 60.5047 12.64 60.7447 11.952C60.9847 11.248 61.1607 10.696 61.2727 10.296C61.3527 10.04 61.4647 9.856 61.6087 9.744C61.7687 9.632 61.9287 9.576 62.0887 9.576C62.2647 9.576 62.4087 9.632 62.5207 9.744C62.6487 9.84 62.7127 9.976 62.7127 10.152C62.7127 10.296 62.6647 10.456 62.5687 10.632C62.4727 10.808 62.3527 11.088 62.2087 11.472C62.0807 11.856 61.9527 12.24 61.8247 12.624C61.6967 13.008 61.5847 13.296 61.4887 13.488C62.0487 12.944 62.5527 12.496 63.0007 12.144C63.4487 11.792 64.0407 11.448 64.7767 11.112C65.0967 10.952 65.5127 10.872 66.0247 10.872C66.3927 10.872 66.7607 10.944 67.1287 11.088C67.4967 11.232 67.8007 11.488 68.0407 11.856C68.2807 12.224 68.4007 12.744 68.4007 13.416C68.4007 13.672 68.2567 13.8 67.9687 13.8C67.8567 13.8 67.7367 13.752 67.6087 13.656C67.4967 13.56 67.4007 13.4 67.3207 13.176C67.2087 12.808 67.0327 12.52 66.7927 12.312C66.5687 12.088 66.2727 11.976 65.9047 11.976C65.6807 11.976 65.4247 12.024 65.1367 12.12C64.7847 12.232 64.3447 12.448 63.8167 12.768C63.2887 13.072 62.7447 13.456 62.1847 13.92C61.6407 14.384 61.1367 14.912 60.6727 15.504C60.6727 15.616 60.6487 15.744 60.6007 15.888C60.5687 16.032 60.5527 16.192 60.5527 16.368C60.5527 16.4 60.5687 16.48 60.6007 16.608C60.6327 16.736 60.6487 16.864 60.6487 16.992C60.6487 17.168 60.5767 17.32 60.4327 17.448C60.3047 17.56 60.1607 17.616 60.0007 17.616Z" fill="#2A2A2A"/>
<path d="M2.50633 45V29H7.88633C9.52633 29 10.8063 29.3867 11.7263 30.16C12.6597 30.92 13.1263 31.9867 13.1263 33.36C13.1263 34.08 12.933 34.72 12.5463 35.28C12.1597 35.8267 11.6197 36.22 10.9263 36.46V36.78C11.713 37.0467 12.3263 37.5067 12.7663 38.16C13.2063 38.8133 13.4263 39.5867 13.4263 40.48C13.4263 41.8933 12.9397 43 11.9663 43.8C10.993 44.6 9.64633 45 7.92633 45H2.50633ZM5.50633 42.22H7.90633C8.733 42.22 9.35966 42.0467 9.78633 41.7C10.2263 41.34 10.4463 40.8467 10.4463 40.22C10.4463 39.58 10.2263 39.0867 9.78633 38.74C9.35966 38.3933 8.733 38.22 7.90633 38.22H5.50633V42.22ZM5.50633 35.62H7.86633C8.653 35.62 9.25966 35.46 9.68633 35.14C10.113 34.8067 10.3263 34.3333 10.3263 33.72C10.3263 33.1067 10.113 32.6333 9.68633 32.3C9.25966 31.9533 8.653 31.78 7.86633 31.78H5.50633V35.62ZM15.2302 45L19.0102 29H23.9702L27.7502 45H24.7102L21.5502 31.2H21.2502L18.0902 45H15.2302ZM17.8302 40.06V37.22H25.1502V40.06H17.8302ZM32.8341 40.72C33.0208 41.3467 33.3475 41.82 33.8141 42.14C34.2941 42.46 34.9075 42.62 35.6541 42.62C36.4408 42.62 37.0608 42.4333 37.5141 42.06C37.9675 41.6733 38.1941 41.1467 38.1941 40.48C38.1941 39.9867 38.0341 39.58 37.7141 39.26C37.3941 38.94 36.9408 38.74 36.3541 38.66L34.4341 38.36C33.0341 38.1333 31.9608 37.62 31.2141 36.82C30.4808 36.0067 30.1141 34.94 30.1141 33.62C30.1141 32.5933 30.3408 31.7133 30.7941 30.98C31.2608 30.2333 31.9141 29.66 32.7541 29.26C33.5941 28.8467 34.5808 28.64 35.7141 28.64C36.8608 28.64 37.8475 28.84 38.6741 29.24C39.5141 29.64 40.1741 30.2133 40.6541 30.96C41.1341 31.7067 41.4008 32.6133 41.4541 33.68H38.6341C38.4475 32.9333 38.1075 32.3667 37.6141 31.98C37.1208 31.58 36.4875 31.38 35.7141 31.38C34.8875 31.38 34.2341 31.5733 33.7541 31.96C33.2741 32.3467 33.0341 32.88 33.0341 33.56C33.0341 34.04 33.1941 34.44 33.5141 34.76C33.8475 35.08 34.3075 35.2867 34.8941 35.38L36.7941 35.68C38.2075 35.8933 39.2808 36.4067 40.0141 37.22C40.7608 38.0333 41.1341 39.1 41.1341 40.42C41.1341 41.42 40.9075 42.2933 40.4541 43.04C40.0141 43.7733 39.3808 44.3467 38.5541 44.76C37.7275 45.16 36.7541 45.36 35.6341 45.36C34.5141 45.36 33.5341 45.18 32.6941 44.82C31.8675 44.4467 31.2141 43.9133 30.7341 43.22C30.2675 42.5267 30.0008 41.6933 29.9341 40.72H32.8341ZM43.238 45L47.018 29H51.978L55.758 45H52.718L49.558 31.2H49.258L46.098 45H43.238ZM45.838 40.06V37.22H53.158V40.06H45.838ZM58.042 45V29H62.902C65.1153 29 66.7886 29.68 67.922 31.04C69.0686 32.3867 69.642 34.3733 69.642 37C69.642 39.6133 69.0686 41.6 67.922 42.96C66.7886 44.32 65.1153 45 62.902 45H58.042ZM61.042 42.2H62.902C64.1553 42.2 65.0886 41.7733 65.702 40.92C66.3286 40.0533 66.642 38.7467 66.642 37C66.642 35.24 66.3286 33.9333 65.702 33.08C65.0886 32.2267 64.1553 31.8 62.902 31.8H61.042V42.2ZM71.8659 29H74.8659V39.38C74.8659 40.3933 75.0992 41.1867 75.5659 41.76C76.0459 42.32 76.7125 42.6 77.5659 42.6C78.4192 42.6 79.0792 42.3133 79.5459 41.74C80.0259 41.1667 80.2659 40.36 80.2659 39.32V29H83.1459V39.5C83.1459 41.38 82.6592 42.8267 81.6859 43.84C80.7259 44.8533 79.3325 45.36 77.5059 45.36C75.6792 45.36 74.2792 44.8533 73.3059 43.84C72.3459 42.8267 71.8659 41.38 71.8659 39.5V29ZM86.3498 45V29H92.2698C93.3364 29 94.2631 29.2 95.0498 29.6C95.8364 29.9867 96.4431 30.5467 96.8698 31.28C97.3098 32.0133 97.5298 32.8733 97.5298 33.86C97.5298 34.7667 97.3098 35.5667 96.8698 36.26C96.4298 36.9533 95.8098 37.4933 95.0098 37.88C94.2231 38.2667 93.3098 38.46 92.2698 38.46H89.3498V45H86.3498ZM94.5498 45L90.4498 37.96H93.6498L97.9298 45H94.5498ZM89.3498 35.92H92.2298C92.9364 35.92 93.4964 35.7333 93.9098 35.36C94.3231 34.9867 94.5298 34.4933 94.5298 33.88C94.5298 33.2533 94.3231 32.7533 93.9098 32.38C93.4964 32.0067 92.9364 31.82 92.2298 31.82H89.3498V35.92ZM2.56633 67V51H8.44633C9.513 51 10.4463 51.2 11.2463 51.6C12.0463 52 12.6597 52.5667 13.0863 53.3C13.5263 54.0333 13.7463 54.9 13.7463 55.9C13.7463 56.8733 13.5263 57.72 13.0863 58.44C12.6597 59.16 12.0463 59.72 11.2463 60.12C10.4463 60.5067 9.513 60.7 8.44633 60.7H5.56633V67H2.56633ZM5.56633 58H8.48633C9.19299 58 9.74633 57.82 10.1463 57.46C10.5463 57.0867 10.7463 56.5733 10.7463 55.92C10.7463 55.2667 10.5463 54.7533 10.1463 54.38C9.74633 54.0067 9.19299 53.82 8.48633 53.82H5.56633V58ZM16.3302 67V51H22.2502C23.3169 51 24.2436 51.2 25.0302 51.6C25.8169 51.9867 26.4236 52.5467 26.8502 53.28C27.2902 54.0133 27.5102 54.8733 27.5102 55.86C27.5102 56.7667 27.2902 57.5667 26.8502 58.26C26.4102 58.9533 25.7902 59.4933 24.9902 59.88C24.2036 60.2667 23.2902 60.46 22.2502 60.46H19.3302V67H16.3302ZM24.5302 67L20.4302 59.96H23.6302L27.9102 67H24.5302ZM19.3302 57.92H22.2102C22.9169 57.92 23.4769 57.7333 23.8902 57.36C24.3036 56.9867 24.5102 56.4933 24.5102 55.88C24.5102 55.2533 24.3036 54.7533 23.8902 54.38C23.4769 54.0067 22.9169 53.82 22.2102 53.82H19.3302V57.92ZM35.4941 67.36C33.4675 67.36 31.9341 66.66 30.8941 65.26C29.8675 63.8467 29.3541 61.76 29.3541 59C29.3541 56.24 29.8675 54.16 30.8941 52.76C31.9341 51.3467 33.4675 50.64 35.4941 50.64C37.5208 50.64 39.0475 51.3467 40.0741 52.76C41.1141 54.16 41.6341 56.24 41.6341 59C41.6341 61.76 41.1141 63.8467 40.0741 65.26C39.0475 66.66 37.5208 67.36 35.4941 67.36ZM35.4941 64.6C36.5608 64.6 37.3475 64.1467 37.8541 63.24C38.3741 62.32 38.6341 60.9067 38.6341 59C38.6341 57.0933 38.3741 55.6867 37.8541 54.78C37.3475 53.86 36.5608 53.4 35.4941 53.4C34.4275 53.4 33.6341 53.86 33.1141 54.78C32.6075 55.6867 32.3541 57.0933 32.3541 59C32.3541 60.9067 32.6075 62.32 33.1141 63.24C33.6341 64.1467 34.4275 64.6 35.4941 64.6ZM45.178 67V51H55.298V53.84H48.178V58.02H54.298V60.64H48.178V67H45.178ZM58.042 67V64.16H62.002V53.84H58.042V51H68.962V53.84H65.002V64.16H68.962V67H58.042ZM73.6259 67V51H76.6259V64.16H83.3059V67H73.6259ZM86.8898 67V51H97.0098V53.66H89.8898V57.72H96.0098V60.26H89.8898V64.34H96.8098V67H86.8898Z" fill="#2A2A2A"/>
</svg>
