<?xml version="1.0" encoding="utf-8" ?>
<svg xmlns="http://www.w3.org/2000/svg" xmlns:xlink="http://www.w3.org/1999/xlink" width="1024" height="1024">
	<path transform="scale(2 2)" d="M108.125 145.291C109.491 168.725 134.534 197.984 158.539 198.389C172.218 198.621 175.324 178.585 162.773 173.84C159.825 172.726 156.734 172.276 153.838 170.936C110.234 150.754 134.857 72.2544 195.078 71.509C212.439 69.6876 233.256 79.3656 243.611 92.9122C243.897 96.3475 243.63 99.9852 243.625 103.446L243.611 409.628C236.701 420.168 218.588 428.477 206.474 430.617C174.662 436.238 138.299 415.004 132.76 382.073C129.805 364.504 135.888 341.407 152.376 331.997C157.764 328.922 164.229 329.135 168.071 323.567C175.095 313.388 166.078 301.779 153.669 304.621C137.634 308.293 124.602 320.806 116.168 334.383C112.23 341.499 108.509 349.547 108.125 357.771C78.2864 341.115 58.2847 303.325 71.3657 270.035C72.2247 267.849 73.3443 265.749 73.8848 263.45L95.9388 263.444C102.375 263.479 110.458 264.946 115.65 260.119C120.424 255.681 120.511 247.355 116.029 242.697C110.704 237.165 101.984 238.567 95.0699 238.568L73.8848 238.57C57.4539 206.911 75.4783 158.969 108.125 145.291Z"/>
	<path transform="scale(2 2)" d="M268.76 92.9122C278.148 79.0674 297.352 73.098 313.165 71.509C350.312 69.8558 386.089 103.451 379.291 140.996C376.931 154.033 369.173 165.695 356.996 171.334C353.379 173.008 349.05 173.684 345.801 176.037C332.964 185.335 346.042 214.624 380.984 186.611C393.219 176.803 402.322 160.868 404.01 145.291C436.454 161.031 453.988 204.89 439.397 238.57L417.354 238.557C412.576 238.556 406.961 238.052 402.307 239.153C390.32 241.989 389.316 260.291 401.753 263.007C406.15 263.967 411.247 263.462 415.753 263.463L439.397 263.45C439.711 267.514 441.484 271.5 442.537 275.434C449.787 302.512 437.374 331.09 416.196 348.532C412.216 351.811 407.117 354.181 403.453 357.529L403.194 357.771C396.569 333.225 389.28 315.905 362.603 305.91C339.187 297.137 333.693 322.551 352.303 328.993C368.15 334.097 377.693 349.499 379.396 365.565C384.572 414.419 324.928 448.49 284.157 421.752C278.656 418.145 273.821 413.792 268.76 409.628C269.069 400.969 268.766 392.186 268.765 383.511L268.76 330.962C283.844 330.427 297.326 323.192 306.473 311.056C309.507 307.03 312.928 301.196 312.085 295.936C311.177 290.266 304.963 285.037 299.141 285.623C287.988 286.744 287.935 302.584 268.76 305.382L268.76 196.614C283.719 196.241 297.554 187.626 306.237 175.726C313.624 165.603 315.535 148.585 299.387 149.832C287.358 150.762 288.91 167.18 268.76 171.46L268.76 92.9122Z"/>
</svg>
