<?xml version="1.0" encoding="utf-8" ?>
<svg xmlns="http://www.w3.org/2000/svg" xmlns:xlink="http://www.w3.org/1999/xlink" width="1024" height="1024">
	<path transform="scale(2 2)" d="M142.638 158.283C154.462 148.166 166.636 134.12 178.049 123.015C181.539 119.619 184.817 115.608 188.901 112.919C198.235 106.773 212.922 107.375 221.307 114.825C232.036 124.357 230.731 128.116 242.99 115.517C253.922 104.282 267.832 87.6169 283.627 85.8429C298.033 84.4871 305.39 90.348 314.654 99.5906C333.87 118.762 353.947 138.546 372.349 158.283L217.625 158.283L142.638 158.283Z"/>
	<path transform="scale(2 2)" d="M95.5943 139.306L74.1107 139.301C69.0057 139.316 61.9026 140.516 57.4188 137.407C49.7843 132.114 53.673 120.534 63.0434 119.55L86.7647 119.536C91.6235 119.538 96.6385 119.3 101.479 119.687C112.106 120.536 112.785 129.724 116.03 137.878C121.224 150.926 127.335 165.425 131.862 178.673L419.143 178.685C424.084 178.639 429.418 177.346 433.497 181.001C443.701 190.143 423.947 207.088 417.738 214.557L365.865 277.62C347.007 300.776 351.889 302.166 320.163 302.172L292.505 302.161C295.814 303.999 298.953 306.316 302.099 308.42L339.465 333.187C342.605 335.224 345.754 337.151 348.712 339.456C350.523 334.985 352.293 330.512 354.913 326.435C382.25 283.899 445.664 297.525 456.49 348.305C462.268 383.492 435.668 416.398 399.628 415.364C371.325 414.553 345.029 389.669 346.066 360.711C343.732 359.463 341.555 357.888 339.328 356.46L287.953 323.443C281.19 319.038 274.336 313.769 267.052 310.328C259.303 326.509 250.818 342.3 242.766 358.324L224.805 394.182C222.095 399.645 217.573 413.187 211.347 415.013C200.325 418.247 198.198 405.265 195.258 397.956L99.4051 149.854C98.0711 146.376 96.5592 142.908 95.5943 139.306ZM240.728 302.161L179.395 302.161C181.979 310.367 185.458 318.386 188.606 326.397L203.507 364.757C205.482 370.165 207.379 375.587 209.818 380.809C218.613 364.944 226.223 348.366 234.452 332.195L244.098 313.533C246.021 309.783 248.105 306.167 249.471 302.161C246.544 302.054 243.657 302.006 240.728 302.161ZM400.152 338.737C389.753 339.258 381.754 348.123 382.3 358.52C382.847 368.918 391.732 376.895 402.128 376.322C412.488 375.752 420.431 366.905 419.886 356.544C419.341 346.183 410.514 338.218 400.152 338.737Z"/>
</svg>
