<?xml version="1.0" encoding="utf-8" ?>
<svg xmlns="http://www.w3.org/2000/svg" xmlns:xlink="http://www.w3.org/1999/xlink" width="1024" height="1024">
	<path transform="scale(2 2)" d="M182.135 330.356C175.688 299.326 159.279 289.182 143.004 266.692C129.76 248.392 121.98 223.523 120.285 201.148C114.442 124.032 171.677 58.6592 248.598 53.0159C262.293 52.9669 275.23 53.7362 288.554 57.1391C378.257 80.0493 421.259 185.566 370.615 263.427C355.425 286.781 337.709 300.616 330.106 330.356L267.987 330.356L267.987 244.614L263.917 244.614L243.971 244.614L243.971 330.356L202.616 330.356C195.809 330.354 188.932 330.116 182.135 330.356ZM252.376 93.9733C203.972 95.1421 159.85 136.902 160.927 186.309C161.131 195.691 173.38 201.662 179.915 193.84C183.2 189.908 182.747 184.423 183.345 179.639C188.137 141.341 222.263 116.776 259.567 117.243C293.991 120.859 323.452 143.184 328.75 178.972C329.297 182.671 329.087 187.111 330.746 190.5C335.718 200.652 350.833 197.814 351.59 186.304C351.779 183.425 351.415 180.338 351.065 177.471C345.425 131.309 299.401 89.3397 252.376 93.9733Z"/>
	<path transform="scale(2 2)" d="M183.669 353.375L256.245 353.375L328.748 353.375L328.748 400.926L256.245 400.926L183.669 400.926L183.669 353.375Z"/>
	<path transform="scale(2 2)" d="M281.097 448.818C269.373 449.175 239.816 450.254 228.741 448.59C216.276 446.717 213.215 425.01 231.343 422.987C241.722 422.683 272.75 421.605 282.235 423.148C297.774 425.676 297.319 447.974 281.097 448.818Z"/>
</svg>
