<svg width="24" height="24" viewBox="0 0 24 24" fill="none" xmlns="http://www.w3.org/2000/svg">
<path d="M22.5 18.75L21.4395 17.6895L19.5 19.629V13.5H18V19.629L16.0605 17.6895L15 18.75L18.75 22.5L22.5 18.75Z" fill="#21231D"/>
<path d="M13.5 20.9999H6V2.99986H12V7.49986C12.0012 7.89732 12.1596 8.27816 12.4407 8.55921C12.7217 8.84025 13.1025 8.99867 13.5 8.99986H18V11.2499H19.5V7.49986C19.5026 7.40129 19.4839 7.30332 19.4451 7.21269C19.4062 7.12206 19.3482 7.04092 19.275 6.97486L14.025 1.72486C13.9593 1.65125 13.8782 1.59296 13.7875 1.55409C13.6968 1.51521 13.5986 1.4967 13.5 1.49986H6C5.60254 1.50104 5.2217 1.65946 4.94065 1.94051C4.6596 2.22156 4.50119 2.6024 4.5 2.99986V20.9999C4.50119 21.3973 4.6596 21.7782 4.94065 22.0592C5.2217 22.3403 5.60254 22.4987 6 22.4999H13.5V20.9999ZM13.5 3.29986L17.7 7.49986H13.5V3.29986Z" fill="#21231D"/>
</svg>
